# File produced by Open Asset Import Library (http://www.assimp.sf.net)
# (assimp v3.1.128981410)

mtllib LargeBoxMesh.mtl

# vertex positions
v -7.620606 -46.116859 45.387959
v -7.620606 -46.587261 45.387959
v -7.620606 -46.587261 -45.387962
v -7.620606 -46.116859 -45.387962
v 7.620723 -46.116859 -45.387962
v 7.620723 -46.587261 -45.387962
v 7.620723 -46.587261 45.387959
v 7.620723 -46.116859 45.387959
v -93.093018 -46.116859 -46.554062
v 93.093132 -46.116859 -46.554062
v 93.093132 -46.570301 -46.554062
v -93.093018 -46.564468 -46.554062
v 93.093132 -46.116859 46.554062
v -93.093018 -46.116859 46.554062
v -93.093018 -46.564468 46.554062
v 93.093132 -46.570301 46.554062
v -90.888184 -46.714157 -0.377746
v -90.888184 -48.550247 -0.377746
v 90.888298 -48.556084 -0.377746
v 90.888298 -46.719994 -0.377746
v 90.888298 -46.719994 0.377744
v 90.888298 -48.556084 0.377744
v -90.888184 -48.550247 0.377744
v -90.888184 -46.714157 0.377744
v 93.093132 -48.406395 -46.248158
v -93.093018 -48.400558 -46.248158
v -93.093018 -48.400558 46.248158
v 93.093132 -48.406395 46.248158
v 93.093132 -46.875000 46.554062
v 93.093132 -46.875000 -46.554062
v 93.093132 46.116859 -46.554062
v 93.093132 46.116859 46.554062
v -93.093018 -46.875000 -46.554062
v -93.093018 -46.875000 46.554062
v -93.093018 46.116859 46.554062
v -93.093018 46.116859 -46.554062
v -7.620606 46.116859 -45.387959
v -7.620606 46.587261 -45.387959
v -7.620606 46.587261 45.387962
v -7.620606 46.116859 45.387962
v 7.620723 46.116859 45.387962
v 7.620723 46.587261 45.387962
v 7.620723 46.587261 -45.387959
v 7.620723 46.116859 -45.387959
v 93.093132 46.570301 46.554062
v -93.093018 46.564468 46.554062
v -93.093018 46.564468 -46.554062
v 93.093132 46.570301 -46.554062
v -90.888184 46.714157 0.377746
v -90.888184 48.550247 0.377746
v 90.888298 48.556084 0.377746
v 90.888298 46.719994 0.377746
v 90.888298 46.719994 -0.377744
v 90.888298 48.556084 -0.377744
v -90.888184 48.550247 -0.377744
v -90.888184 46.714157 -0.377744
v 93.093132 48.406395 46.248158
v -93.093018 48.400558 46.248158
v -93.093018 48.400558 -46.248158
v 93.093132 48.406395 -46.248158

# UV coordinates
vt 0.831043 0.344552
vt 0.830298 0.345297
vt 0.835034 0.173465
vt 0.835923 0.173492
vt 0.750653 0.495707
vt 0.750726 0.496757
vt 0.624158 0.380231
vt 0.624763 0.379578
vt 0.000005 0.592407
vt 0.000000 0.354213
vt 0.001260 0.354213
vt 0.001249 0.592407
vt 0.001260 0.734648
vt 0.001251 0.972825
vt 0.000007 0.972825
vt 0.000000 0.734648
vt 0.991704 0.352461
vt 0.997126 0.176499
vt 0.835941 0.172605
vt 0.997140 0.175655
vt 0.836870 0.001398
vt 0.997968 0.000000
vt 0.991665 0.353309
vt 0.861978 0.379815
vt 0.733069 0.260180
vt 0.624105 0.378982
vt 0.732435 0.259605
vt 0.987428 0.504057
vt 0.872559 0.617029
vt 0.862597 0.380412
vt 0.997968 0.176525
vt 0.992547 0.352487
vt 0.733650 0.259554
vt 0.862559 0.379189
vt 0.188534 0.935867
vt 0.186077 0.933443
vt 0.429817 0.689063
vt 0.432247 0.691514
vt 0.093141 0.349324
vt 0.089689 0.349340
vt 0.090142 0.004186
vt 0.093594 0.004210
vt 0.247218 0.999999
vt 0.496490 0.749997
vt 0.369300 0.622806
vt 0.432588 0.686543
vt 0.370010 0.626784
vt 0.123368 0.873295
vt 0.183554 0.936212
vt 0.119377 0.872663
vt 0.179921 0.353398
vt 0.180437 0.000358
vt 0.000000 0.000000
vt 0.090316 0.000444
vt 0.003269 0.002376
vt 0.003361 0.351088
vt 0.089866 0.353080
vt 0.000046 0.353398
vt 0.593554 0.121378
vt 0.706701 0.000000
vt 0.819005 0.146250
vt 0.706323 0.267146
vt 0.243938 0.487271
vt 0.363278 0.364514
vt 0.477404 0.509114
vt 0.359704 0.629462
vt 0.116832 0.872317
vt 0.000298 0.731020
vt 0.740129 0.762814
vt 0.739077 0.762842
vt 0.860503 0.641272
vt 0.861131 0.641903
vt 0.751903 0.737814
vt 0.751276 0.738441
vt 0.629842 0.616880
vt 0.630895 0.616908
vt 0.706878 0.267854
vt 0.477952 0.509814
vt 0.360268 0.630142
vt 0.117404 0.873007
vt 0.851115 0.878935
vt 0.976209 0.755003
vt 0.721172 0.999568
vt 0.613042 0.880140
vt 0.613700 0.879544
vt 0.721798 0.999001
vt 0.850500 0.879521
vt 0.866974 0.624708
vt 0.741868 0.500780
vt 0.741246 0.500187
vt 0.504445 0.500197
vt 0.612524 0.380725
vt 0.503787 0.499602
vt 0.611890 0.380151
vt 0.851074 0.880139
vt 0.722372 0.999619
vt 0.613105 0.380099
vt 0.741827 0.499560
vt 0.683160 0.802707
vt 0.680736 0.805165
vt 0.436355 0.561424
vt 0.438807 0.558995
vt 0.274391 0.351838
vt 0.270939 0.351854
vt 0.271392 0.006700
vt 0.274844 0.006724
vt 0.747291 0.744023
vt 0.497290 0.494751
vt 0.370099 0.621942
vt 0.433836 0.558654
vt 0.374076 0.621231
vt 0.620588 0.867873
vt 0.683505 0.807687
vt 0.619956 0.871864
vt 0.361171 0.355912
vt 0.361688 0.002872
vt 0.181251 0.002514
vt 0.271566 0.002959
vt 0.184520 0.004890
vt 0.184612 0.353602
vt 0.271117 0.355595
vt 0.181297 0.355912

# vertex normals
vn 1.000000 0.000000 0.000000
vn -1.000000 0.000000 0.000000
vn 0.000000 0.000000 -1.000000
vn 0.000000 0.000000 1.000000
vn 0.000000 1.000000 0.000000
vn 0.013642 0.000000 -0.999907
vn 0.013642 0.000000 -0.999907
vn -0.000267 -1.000000 0.000000
vn -0.000267 -1.000000 0.000000
vn 0.013642 0.000000 0.999907
vn 0.013642 0.000000 0.999907
vn -0.013642 0.000000 0.999907
vn -0.013642 0.000000 0.999907
vn 0.000198 -1.000000 0.000000
vn 0.000198 -1.000000 0.000000
vn -0.013642 0.000000 -0.999907
vn -0.013642 0.000000 -0.999907
vn 0.000000 0.000000 1.000000
vn 0.000000 0.000000 1.000000
vn 0.000000 0.000000 -1.000000
vn 0.000000 0.000000 -1.000000
vn 0.000032 0.999995 0.003242
vn 0.000032 0.999995 0.003242
vn 0.998846 0.003987 0.047865
vn 0.998846 0.003987 0.047865
vn 0.998846 0.003987 0.047865
vn -0.000032 -0.999995 -0.003263
vn -0.000032 -0.999995 -0.003263
vn -0.998846 0.003986 0.047865
vn -0.998846 0.003986 0.047865
vn -0.998846 0.003986 0.047865
vn 0.000032 0.999995 -0.003242
vn 0.000032 0.999995 -0.003242
vn -0.998846 0.003986 -0.047865
vn -0.998846 0.003986 -0.047865
vn -0.998846 0.003986 -0.047865
vn -0.000032 -0.999995 0.003263
vn -0.000032 -0.999995 0.003263
vn -0.000032 -0.999995 0.003263
vn 0.998846 0.003987 -0.047865
vn 0.998846 0.003987 -0.047865
vn 0.998846 0.003987 -0.047865
vn -0.000005 -0.164340 -0.986404
vn -0.000005 -0.164340 0.986404
vn 0.000000 -1.000000 0.000000
vn -0.000267 1.000000 0.000000
vn -0.000267 1.000000 0.000000
vn 0.000198 1.000000 0.000000
vn 0.000198 1.000000 0.000000
vn 0.000000 0.000000 -1.000000
vn 0.000000 0.000000 -1.000000
vn 0.000000 0.000000 1.000000
vn 0.000000 0.000000 1.000000
vn 0.000032 -0.999995 -0.003242
vn 0.000032 -0.999995 -0.003242
vn 0.998846 -0.003987 -0.047865
vn 0.998846 -0.003987 -0.047865
vn 0.998846 -0.003987 -0.047865
vn -0.000032 0.999995 0.003263
vn -0.000032 0.999995 0.003263
vn -0.998846 -0.003986 -0.047865
vn -0.998846 -0.003986 -0.047865
vn -0.998846 -0.003986 -0.047865
vn 0.000032 -0.999995 0.003242
vn 0.000032 -0.999995 0.003242
vn -0.998846 -0.003986 0.047865
vn -0.998846 -0.003986 0.047865
vn -0.998846 -0.003986 0.047865
vn -0.000032 0.999995 -0.003263
vn -0.000032 0.999995 -0.003263
vn -0.000032 0.999995 -0.003263
vn 0.998846 -0.003987 0.047865
vn 0.998846 -0.003987 0.047865
vn 0.998846 -0.003987 0.047865
vn -0.000005 0.164340 0.986404
vn -0.000005 0.164340 -0.986404

# Mesh
g LargeBox
usemtl lambert1
f 4/4/1 1/1/1 2/2/1
f 2/2/1 3/3/1 4/4/1
f 8/8/2 5/5/2 6/6/2
f 6/6/2 7/7/2 8/8/2
f 12/12/3 9/9/3 10/10/3
f 10/10/3 11/11/3 12/12/3
f 16/16/4 13/13/4 14/14/4
f 14/14/4 15/15/4 16/16/4
f 9/18/5 14/17/5 1/1/5
f 1/1/5 4/4/5 9/18/5
f 12/20/6 9/18/6 4/4/6
f 4/4/6 3/19/7 12/20/6
f 15/22/8 12/20/8 3/19/9
f 3/19/9 2/21/9 15/22/8
f 14/17/10 15/23/10 2/2/11
f 2/2/11 1/1/10 14/17/10
f 13/25/5 10/24/5 5/5/5
f 5/5/5 8/8/5 13/25/5
f 16/27/13 13/25/12 8/8/12
f 8/8/12 7/26/12 16/27/13
f 11/30/14 16/28/14 7/29/15
f 7/29/15 6/6/15 11/30/14
f 10/24/17 11/30/16 6/6/17
f 6/6/17 5/5/17 10/24/17
f 15/32/2 14/17/2 9/18/2
f 9/18/2 12/31/2 15/32/2
f 11/34/1 10/24/1 13/25/1
f 13/25/1 16/33/1 11/34/1
f 20/38/19 17/35/18 18/36/19
f 18/36/19 19/37/18 20/38/19
f 24/42/21 21/39/20 22/40/21
f 22/40/21 23/41/20 24/42/21
f 11/44/23 12/43/22 17/35/23
f 17/35/23 20/38/23 11/44/23
f 25/47/26 11/45/24 20/46/25
f 20/46/25 19/37/26 25/47/26
f 26/48/27 25/47/27 19/37/28
f 19/37/28 18/36/27 26/48/27
f 12/50/31 26/48/29 18/36/30
f 18/36/30 17/49/29 12/50/31
f 15/52/33 16/51/32 21/39/32
f 21/39/32 24/42/32 15/52/33
f 27/55/36 15/53/34 24/54/35
f 24/54/35 23/41/35 27/55/36
f 28/56/37 27/55/37 23/41/38
f 23/41/38 22/40/39 28/56/37
f 16/58/42 28/56/40 22/40/41
f 22/40/41 21/57/40 16/58/42
f 26/48/43 12/50/43 11/45/43
f 11/45/43 25/47/43 26/48/43
f 28/56/44 16/58/44 15/53/44
f 15/53/44 27/55/44 28/56/44
f 32/62/1 29/59/1 30/60/1
f 30/60/1 31/61/1 32/62/1
f 36/66/2 33/63/2 34/64/2
f 34/64/2 35/65/2 36/66/2
f 32/62/4 35/65/4 34/64/4
f 34/64/4 29/59/4 32/62/4
f 30/68/3 33/63/3 36/66/3
f 36/66/3 31/67/3 30/68/3
f 40/72/1 37/69/1 38/70/1
f 38/70/1 39/71/1 40/72/1
f 44/76/2 41/73/2 42/74/2
f 42/74/2 43/75/2 44/76/2
f 46/78/4 35/65/4 32/62/4
f 32/62/4 45/77/4 46/78/4
f 48/80/3 31/67/3 36/66/3
f 36/66/3 47/79/3 48/80/3
f 35/82/45 36/81/45 37/69/45
f 37/69/45 40/72/45 35/82/45
f 46/86/10 35/83/10 40/84/10
f 40/84/10 39/85/11 46/86/10
f 47/87/46 46/86/46 39/85/47
f 39/85/47 38/70/47 47/87/46
f 36/81/6 47/87/6 38/70/7
f 38/70/7 37/69/6 36/81/6
f 31/89/45 32/88/45 41/73/45
f 41/73/45 44/76/45 31/89/45
f 48/90/16 31/89/17 44/76/17
f 44/76/17 43/75/17 48/90/16
f 45/92/48 48/90/48 43/75/49
f 43/75/49 42/91/49 45/92/48
f 32/94/12 45/92/13 42/91/12
f 42/91/12 41/93/12 32/94/12
f 47/87/2 36/95/2 35/96/2
f 35/96/2 46/86/2 47/87/2
f 45/92/1 32/97/1 31/98/1
f 31/98/1 48/90/1 45/92/1
f 52/102/51 49/99/50 50/100/51
f 50/100/51 51/101/50 52/102/51
f 56/106/53 53/103/52 54/104/53
f 54/104/53 55/105/52 56/106/53
f 45/108/55 46/107/54 49/99/55
f 49/99/55 52/102/55 45/108/55
f 57/111/58 45/109/56 52/110/57
f 52/110/57 51/101/58 57/111/58
f 58/112/59 57/111/59 51/101/60
f 51/101/60 50/100/59 58/112/59
f 46/114/63 58/112/61 50/100/62
f 50/100/62 49/113/61 46/114/63
f 47/116/65 48/115/64 53/103/64
f 53/103/64 56/106/64 47/116/65
f 59/119/68 47/117/66 56/118/67
f 56/118/67 55/105/67 59/119/68
f 60/120/69 59/119/69 55/105/70
f 55/105/70 54/104/71 60/120/69
f 48/122/74 60/120/72 54/104/73
f 54/104/73 53/121/72 48/122/74
f 58/112/75 46/114/75 45/109/75
f 45/109/75 57/111/75 58/112/75
f 60/120/76 48/122/76 47/117/76
f 47/117/76 59/119/76 60/120/76
