# File produced by Open Asset Import Library (http://www.assimp.sf.net)
# (assimp v3.1.128981410)

mtllib TallCrateMesh.mtl

# vertex positions
v 34.000000 62.500000 42.500000
v 34.000000 49.999996 42.500000
v 42.500000 49.999996 42.500000
v 42.500000 62.500000 42.500000
v 34.000000 62.500000 -42.500000
v 34.000000 62.500000 -34.000000
v 42.500000 62.500000 -34.000000
v 42.500000 62.500000 -42.500000
v 42.500000 49.999996 -42.500000
v 34.000000 49.999996 -42.500000
v 42.500000 -62.500000 -34.000000
v 34.000000 -62.500000 -34.000000
v 34.000000 -62.500000 -42.500000
v 42.500000 -62.500000 -42.500000
v 42.500000 49.999996 -34.000000
v -42.500000 49.999996 -42.500000
v -42.500000 49.999996 -34.000000
v -42.500000 62.500000 -34.000000
v -42.500000 62.500000 -42.500000
v -34.850006 -62.500000 -34.000000
v -34.850006 -62.500000 -42.500000
v -34.850006 49.999996 -42.500000
v -34.850006 62.500000 -42.500000
v -34.850006 62.500000 -34.000000
v -34.850006 62.500000 42.500000
v -34.850006 49.999996 42.500000
v -42.500000 -62.500000 -42.500000
v -42.500000 -62.500000 -34.000000
v -42.500000 49.999996 42.500000
v -42.500000 62.500000 42.500000
v -42.500000 62.500000 34.850006
v -34.850006 62.500000 34.850002
v 34.000000 56.225723 -34.000000
v -34.850006 56.225723 -34.000000
v -34.850006 56.225723 34.850006
v 34.000000 56.225723 34.850006
v 34.000000 62.500000 34.850002
v 42.500000 62.500000 34.850006
v 42.500000 49.999996 34.850006
v 42.500000 -62.500000 34.850002
v 34.000000 -62.500000 34.850006
v 34.000000 -56.657970 34.850006
v -34.850006 -56.657970 34.850006
v -34.850006 -56.657970 -34.000000
v 34.000000 -56.657970 -34.000000
v -34.850006 -62.500000 34.850006
v -42.500000 -62.500000 34.850002
v -42.500000 49.999996 34.850006
v 34.000000 -62.500000 42.500000
v 42.500000 -62.500000 42.500000
v -34.850006 -62.500000 42.500000
v -42.500000 -62.500000 42.500000
v -42.500000 -51.250004 42.500000
v -34.850006 -51.249996 42.500000
v 34.000000 49.999996 38.393421
v -34.850006 49.999996 38.393421
v -34.850006 -51.249996 38.393421
v 34.000000 -51.249996 38.393421
v 34.000000 -51.249996 42.500000
v 42.500000 -51.250004 42.500000
v 42.500000 -51.249996 34.850002
v 38.121548 49.999996 -34.000000
v 38.121548 49.999996 34.850006
v 38.121548 -51.249996 34.850002
v 38.121548 -51.249996 -34.000000
v 42.500000 -51.249996 -34.000000
v 42.500000 -51.249996 -42.500000
v 34.000000 -51.250004 -42.500000
v 34.000000 -51.250004 -38.093765
v -34.850006 -51.250004 -38.093765
v -34.850006 49.999996 -38.093765
v 34.000000 49.999996 -38.093765
v -34.850006 -51.250004 -42.500000
v -42.500000 -51.249996 -42.500000
v -42.500000 -51.250004 -34.000000
v -38.364876 49.999996 34.850006
v -38.364876 49.999996 -34.000000
v -38.364876 -51.250004 -34.000000
v -38.364876 -51.250004 34.850002
v -42.500000 -51.250004 34.850002

# UV coordinates
vt 0.683128 0.081683
vt 0.746421 0.277542
vt 0.682533 0.173849
vt 0.659273 0.086382
vt 0.033632 0.077896
vt 0.015673 0.026790
vt 0.075885 0.044142
vt 0.068243 0.069247
vt 0.098336 0.098253
vt 0.058948 0.128662
vt 0.307669 0.293888
vt 0.307248 0.308989
vt 0.289372 0.306786
vt 0.293045 0.294507
vt 0.140707 0.068951
vt 0.070375 0.649202
vt 0.094197 0.684781
vt 0.051613 0.705276
vt 0.045501 0.672832
vt 0.259185 0.456002
vt 0.242755 0.453114
vt 0.049172 0.614752
vt 0.026993 0.665369
vt 0.011689 0.715113
vt 0.554341 0.764901
vt 0.553473 0.711640
vt 0.772394 0.339808
vt 0.241481 0.465137
vt 0.254268 0.469853
vt 0.521955 0.735183
vt 0.529592 0.767816
vt 0.517492 0.790483
vt 0.544134 0.814406
vt 0.096163 0.985349
vt 0.000000 0.730485
vt 0.547208 0.833917
vt 0.368321 0.999999
vt 0.610207 0.019169
vt 0.615138 0.047454
vt 0.620399 0.092556
vt 0.488820 0.298676
vt 0.484514 0.319055
vt 0.467030 0.331139
vt 0.400792 0.485470
vt 0.272684 0.448102
vt 0.316165 0.319444
vt 0.406281 0.498755
vt 0.399690 0.515502
vt 0.487095 0.756377
vt 0.792841 0.365208
vt 0.502513 0.320842
vt 0.499121 0.306275
vt 0.418924 0.503288
vt 0.410952 0.513817
vt 0.418873 0.532778
vt 0.432669 0.518341
vt 0.731800 0.294568
vt 0.556700 0.688385
vt 0.441067 0.515712
vt 0.534741 0.326334
vt 0.529714 0.316332
vt 0.517340 0.292798
vt 0.504212 0.272749
vt 0.165836 0.077358
vt 0.597034 0.098317
vt 0.497779 0.262767
vt 0.304138 0.267599
vt 0.298680 0.274685
vt 0.279851 0.280507
vt 0.268748 0.294712
vt 0.259120 0.298534
vt 0.211850 0.451998
vt 0.057203 0.588159
vt 0.065620 0.151487
vt 0.219058 0.457669
vt 0.226695 0.475397
vt 0.241142 0.488533
vt 0.467927 0.745844
vt 0.113265 0.681002
vt 0.244999 0.497597
vt 0.395355 0.548726
vt 0.402209 0.541234
vt 0.000000 0.011392
vt 0.807751 0.377933
vt 0.605431 0.000000

# vertex normals
vn 0.000000 0.000000 1.000000
vn 0.000000 1.000000 0.000000
vn 0.000000 0.000000 -1.000000
vn 0.000000 -1.000000 0.000000
vn 1.000000 0.000000 0.000000
vn -1.000000 0.000000 0.000000
vn 0.000000 1.000000 0.000000
vn 0.000000 1.000000 0.000000
vn 0.000000 -1.000000 -0.000000
vn 0.000000 1.000000 0.000000
vn 0.000000 1.000000 0.000000
vn 1.000000 -0.000000 0.000000
vn 1.000000 -0.000000 0.000000
vn -1.000000 0.000000 0.000000
vn 1.000000 -0.000000 0.000000
vn 1.000000 -0.000000 0.000000
vn 1.000000 -0.000000 0.000000
vn 1.000000 -0.000000 0.000000
vn 0.000000 -0.000000 -1.000000
vn 0.000000 -0.000000 -1.000000
vn -1.000000 0.000000 0.000000
vn -1.000000 0.000000 0.000000
vn 0.000000 0.000000 1.000000
vn 0.000000 0.000000 -1.000000
vn -1.000000 0.000000 0.000000
vn -1.000000 0.000000 -0.000000

# Mesh
g TallCrate
usemtl lambert1
f 4/4/1 1/1/1 2/2/1
f 2/2/1 3/3/1 4/4/1
f 8/8/2 5/5/2 6/6/2
f 6/6/2 7/7/2 8/8/2
f 8/8/3 9/9/3 10/10/3
f 10/10/3 5/5/3 8/8/3
f 14/14/4 11/11/4 12/12/4
f 12/12/4 13/13/4 14/14/4
f 8/8/5 7/7/5 15/15/5
f 15/15/5 9/9/5 8/8/5
f 19/19/6 16/16/6 17/17/6
f 17/17/6 18/18/6 19/19/6
f 13/13/4 12/12/4 20/20/4
f 20/20/4 21/21/4 13/13/4
f 5/5/3 10/10/3 22/22/3
f 22/22/3 23/23/3 5/5/3
f 5/5/2 23/23/2 24/24/2
f 24/24/2 6/6/2 5/5/2
f 1/27/1 25/25/1 26/26/1
f 26/26/1 2/2/1 1/27/1
f 28/29/4 27/28/4 21/21/4
f 21/21/4 20/20/4 28/29/4
f 16/16/3 19/19/3 23/23/3
f 23/23/3 22/22/3 16/16/3
f 19/19/2 18/18/2 24/24/2
f 24/24/2 23/23/2 19/19/2
f 30/31/1 29/30/1 26/26/1
f 26/26/1 25/25/1 30/31/1
f 18/18/2 31/32/2 32/33/7
f 32/33/7 24/24/2 18/18/2
f 36/37/2 33/34/2 34/35/2
f 34/35/2 35/36/2 36/37/2
f 38/39/2 7/7/2 6/6/2
f 6/6/2 37/38/8 38/39/2
f 7/7/5 38/39/5 39/40/5
f 39/40/5 15/15/5 7/7/5
f 11/11/4 40/41/4 41/42/4
f 41/42/4 12/12/4 11/11/4
f 45/46/9 42/43/9 43/44/9
f 43/44/9 44/45/9 45/46/9
f 47/48/4 28/29/4 20/20/4
f 20/20/4 46/47/4 47/48/4
f 31/32/6 18/18/6 17/17/6
f 17/17/6 48/49/6 31/32/6
f 31/32/2 30/31/2 25/25/10
f 25/25/10 32/33/7 31/32/2
f 1/27/11 37/50/8 32/33/7
f 32/33/7 25/25/10 1/27/11
f 4/4/2 38/39/2 37/38/8
f 37/38/8 1/1/11 4/4/2
f 4/4/5 3/3/5 39/40/5
f 39/40/5 38/39/5 4/4/5
f 50/52/4 49/51/4 41/42/4
f 41/42/4 40/41/4 50/52/4
f 49/51/4 51/53/4 46/47/4
f 46/47/4 41/42/4 49/51/4
f 52/54/4 47/48/4 46/47/4
f 46/47/4 51/53/4 52/54/4
f 30/31/6 31/32/6 48/49/6
f 48/49/6 29/30/6 30/31/6
f 29/30/1 53/55/1 54/56/1
f 54/56/1 26/26/1 29/30/1
f 58/60/1 55/57/1 56/58/1
f 56/58/1 57/59/1 58/60/1
f 60/62/1 3/3/1 2/2/1
f 2/2/1 59/61/1 60/62/1
f 3/3/5 60/62/5 61/63/12
f 61/63/12 39/40/5 3/3/5
f 65/67/5 62/64/5 63/65/5
f 63/65/5 64/66/5 65/67/5
f 67/69/5 9/9/5 15/15/5
f 15/15/5 66/68/13 67/69/5
f 9/9/3 67/69/3 68/70/3
f 68/70/3 10/10/3 9/9/3
f 72/74/3 69/71/3 70/72/3
f 70/72/3 71/73/3 72/74/3
f 74/76/3 16/16/3 22/22/3
f 22/22/3 73/75/3 74/76/3
f 16/16/6 74/76/6 75/77/6
f 75/77/6 17/17/6 16/16/6
f 79/81/14 76/78/14 77/79/14
f 77/79/14 78/80/14 79/81/14
f 53/55/6 29/30/6 48/49/6
f 48/49/6 80/82/6 53/55/6
f 53/55/1 52/54/1 51/53/1
f 51/53/1 54/56/1 53/55/1
f 49/51/1 59/61/1 54/56/1
f 54/56/1 51/53/1 49/51/1
f 50/52/1 60/62/1 59/61/1
f 59/61/1 49/51/1 50/52/1
f 60/62/5 50/52/5 40/41/15
f 40/41/15 61/63/12 60/62/5
f 11/11/16 66/68/13 61/63/12
f 61/63/12 40/41/15 11/11/16
f 14/14/5 67/69/5 66/68/13
f 66/68/13 11/11/16 14/14/5
f 14/14/3 13/13/3 68/70/3
f 68/70/3 67/69/3 14/14/3
f 13/13/3 21/21/3 73/75/3
f 73/75/3 68/70/3 13/13/3
f 27/28/3 74/76/3 73/75/3
f 73/75/3 21/21/3 27/28/3
f 74/76/6 27/28/6 28/29/6
f 28/29/6 75/77/6 74/76/6
f 47/48/6 80/82/6 75/77/6
f 75/77/6 28/29/6 47/48/6
f 52/54/6 53/55/6 80/82/6
f 80/82/6 47/48/6 52/54/6
f 33/83/1 6/6/1 24/24/1
f 24/24/1 34/35/1 33/83/1
f 34/35/17 24/24/17 32/33/18
f 32/33/18 35/36/18 34/35/17
f 35/36/20 32/33/19 37/50/20
f 37/50/20 36/84/20 35/36/20
f 36/85/22 37/38/21 6/6/22
f 6/6/22 33/83/22 36/85/22
f 76/78/4 48/49/4 17/17/4
f 17/17/4 77/79/4 76/78/4
f 77/79/23 17/17/23 75/77/23
f 75/77/23 78/80/23 77/79/23
f 78/80/2 75/77/2 80/82/2
f 80/82/2 79/81/2 78/80/2
f 79/81/24 80/82/24 48/49/24
f 48/49/24 76/78/24 79/81/24
f 55/57/4 2/2/4 26/26/4
f 26/26/4 56/58/4 55/57/4
f 56/58/5 26/26/5 54/56/5
f 54/56/5 57/59/5 56/58/5
f 57/59/2 54/56/2 59/61/2
f 59/61/2 58/60/2 57/59/2
f 58/60/6 59/61/6 2/2/6
f 2/2/6 55/57/6 58/60/6
f 62/64/4 15/15/4 39/40/4
f 39/40/4 63/65/4 62/64/4
f 63/65/24 39/40/24 61/63/24
f 61/63/24 64/66/24 63/65/24
f 64/66/2 61/63/2 66/68/2
f 66/68/2 65/67/2 64/66/2
f 65/67/1 66/68/1 15/15/1
f 15/15/1 62/64/1 65/67/1
f 69/71/2 68/70/2 73/75/2
f 73/75/2 70/72/2 69/71/2
f 70/72/5 73/75/5 22/22/5
f 22/22/5 71/73/5 70/72/5
f 71/73/4 22/22/4 10/10/4
f 10/10/4 72/74/4 71/73/4
f 72/74/25 10/10/25 68/70/25
f 68/70/25 69/71/25 72/74/25
f 42/43/3 41/42/3 46/47/3
f 46/47/3 43/44/3 42/43/3
f 43/44/5 46/47/5 20/20/5
f 20/20/5 44/45/5 43/44/5
f 44/45/1 20/20/1 12/12/1
f 12/12/1 45/46/1 44/45/1
f 45/46/26 12/12/26 41/42/26
f 41/42/26 42/43/26 45/46/26
