# File produced by Open Asset Import Library (http://www.assimp.sf.net)
# (assimp v3.1.128981410)

mtllib LargeCrateMesh.mtl

# vertex positions
v 99.999992 62.500000 62.500000
v 99.999985 49.999996 62.500000
v 125.000000 49.999996 62.500000
v 125.000000 62.500000 62.500000
v 99.999992 62.500000 -62.500000
v 99.999985 62.500000 -49.999996
v 125.000000 62.500000 -49.999996
v 125.000000 62.500000 -62.500000
v 125.000000 49.999996 -62.500000
v 99.999992 49.999996 -62.500000
v 125.000000 -62.500000 -49.999996
v 99.999992 -62.500000 -49.999996
v 99.999992 -62.500000 -62.500000
v 125.000000 -62.500000 -62.500000
v 125.000000 49.999996 -49.999992
v -125.000000 49.999996 -62.500000
v -125.000000 49.999996 -49.999996
v -125.000000 62.500000 -49.999996
v -125.000000 62.500000 -62.500000
v -102.500008 -62.500000 -49.999996
v -102.500008 -62.500000 -62.500000
v -102.500008 49.999996 -62.500000
v -102.500008 62.500000 -62.500000
v -102.500008 62.500000 -49.999996
v -102.500008 62.500000 62.500000
v -102.500008 49.999996 62.500000
v -125.000000 -62.500000 -62.500000
v -125.000000 -62.500000 -49.999996
v -125.000000 49.999996 62.500000
v -125.000000 62.500000 62.500000
v -125.000000 62.500000 51.250004
v -102.500008 62.500000 51.249996
v 99.999985 56.225723 -49.999996
v -102.500015 56.225723 -49.999996
v -102.500015 56.225723 51.250004
v 99.999985 56.225723 51.250004
v 99.999985 62.500000 51.249996
v 125.000000 62.500000 51.250004
v 125.000000 49.999996 51.250004
v 125.000000 -62.500000 51.249996
v 99.999985 -62.500000 51.250004
v 99.999985 -56.657970 51.250004
v -102.500008 -56.657970 51.250004
v -102.500008 -56.657970 -49.999996
v 99.999992 -56.657970 -49.999996
v -102.500008 -62.500000 51.250004
v -125.000000 -62.500000 51.249996
v -125.000000 49.999996 51.250004
v 99.999992 -62.500000 62.500000
v 125.000000 -62.500000 62.500000
v -102.500008 -62.500000 62.500000
v -125.000000 -62.500000 62.500000
v -125.000000 -51.250004 62.500000
v -102.500008 -51.249996 62.500000
v 99.999985 49.999996 56.460915
v -102.500008 49.999996 56.460915
v -102.500008 -51.249996 56.460915
v 99.999985 -51.249996 56.460915
v 99.999985 -51.249996 62.500000
v 125.000000 -51.250004 62.500000
v 125.000000 -51.249996 51.249996
v 112.122208 49.999996 -49.999992
v 112.122208 49.999996 51.250004
v 112.122208 -51.249996 51.249996
v 112.122208 -51.249996 -49.999992
v 125.000000 -51.249996 -49.999992
v 125.000000 -51.249996 -62.500000
v 99.999985 -51.250004 -62.500000
v 99.999985 -51.250004 -56.020245
v -102.500008 -51.250004 -56.020245
v -102.500008 49.999996 -56.020245
v 99.999992 49.999996 -56.020245
v -102.500008 -51.250004 -62.500000
v -125.000000 -51.249996 -62.500000
v -125.000000 -51.250004 -49.999992
v -112.837898 49.999996 51.250004
v -112.837898 49.999996 -49.999996
v -112.837898 -51.250004 -49.999992
v -112.837898 -51.250004 51.249996
v -125.000000 -51.250004 51.249996

# UV coordinates
vt 0.796180 0.975274
vt 0.737215 0.989177
vt 0.751163 0.946288
vt 0.773970 0.940244
vt 0.862989 0.549415
vt 0.890849 0.627406
vt 0.846477 0.628513
vt 0.836321 0.590273
vt 0.815515 0.583031
vt 0.798813 0.464708
vt 0.623101 0.669173
vt 0.592590 0.649618
vt 0.612255 0.630486
vt 0.629285 0.653432
vt 0.824363 0.629171
vt 0.412020 0.256830
vt 0.389781 0.246025
vt 0.396639 0.229608
vt 0.414580 0.241946
vt 0.366608 0.443589
vt 0.379779 0.431199
vt 0.454070 0.265603
vt 0.452603 0.244818
vt 0.805005 0.420598
vt 0.448180 0.222574
vt 0.809135 0.378425
vt 0.318089 0.035296
vt 0.318683 0.011505
vt 0.800683 0.011529
vt 0.802683 0.035444
vt 0.363969 0.410201
vt 0.351849 0.415206
vt 0.111148 0.278735
vt 0.007317 0.382678
vt 0.115933 0.212242
vt 0.133729 0.233807
vt 0.182605 0.192820
vt 0.270263 0.099456
vt 0.810225 0.358298
vt 0.451086 0.214411
vt 0.315024 0.068474
vt 0.807716 0.069271
vt 0.830387 0.934325
vt 0.786625 0.922530
vt 0.762622 0.923401
vt 0.484013 0.834753
vt 0.427809 0.834188
vt 0.430574 0.819761
vt 0.222926 0.485832
vt 0.363426 0.451742
vt 0.579656 0.652732
vt 0.210122 0.480063
vt 0.207097 0.447152
vt 0.156350 0.235187
vt 0.805603 0.057134
vt 0.316429 0.056601
vt 0.412159 0.855995
vt 0.473020 0.848290
vt 0.188534 0.477205
vt 0.195604 0.449696
vt 0.184702 0.439997
vt 0.164646 0.468942
vt 0.176901 0.917535
vt 0.000000 0.459189
vt 0.158724 0.473619
vt 0.383267 0.887647
vt 0.396400 0.880559
vt 0.481256 0.859061
vt 0.504325 0.844435
vt 0.799759 0.657207
vt 0.750064 0.897753
vt 0.540116 0.836063
vt 0.647862 0.690759
vt 0.640644 0.672763
vt 0.647015 0.648385
vt 0.631309 0.615543
vt 0.634340 0.602207
vt 0.399321 0.414762
vt 0.459058 0.279247
vt 0.781717 0.467506
vt 0.389954 0.418391
vt 0.367780 0.398910
vt 0.351113 0.398780
vt 0.176183 0.252003
vt 0.366105 0.258970
vt 0.339440 0.386278
vt 0.210328 0.411081
vt 0.198629 0.431556
vt 0.902451 0.630765
vt 0.842350 0.935869
vt 0.318517 0.000000
vt 0.800172 0.000000
vt 0.732548 0.999999

# vertex normals
vn 0.000000 0.000000 1.000000
vn 0.000000 1.000000 0.000000
vn 0.000000 0.000000 -1.000000
vn 0.000000 -1.000000 0.000000
vn 1.000000 0.000000 0.000000
vn -1.000000 0.000000 0.000000
vn 0.000000 1.000000 0.000000
vn 0.000000 1.000000 0.000000
vn 0.000000 -1.000000 -0.000000
vn 0.000000 1.000000 0.000000
vn 0.000000 1.000000 0.000000
vn 1.000000 -0.000000 0.000000
vn 1.000000 -0.000000 0.000000
vn -1.000000 0.000000 0.000000
vn 1.000000 -0.000000 0.000000
vn 1.000000 -0.000000 0.000000
vn 1.000000 -0.000001 0.000000
vn 1.000000 -0.000001 0.000000
vn 0.000000 -0.000001 -1.000000
vn 0.000000 -0.000001 -1.000000
vn -1.000000 0.000001 0.000000
vn -1.000000 0.000001 0.000000
vn 0.000000 0.000000 1.000000
vn 0.000000 0.000000 -1.000000
vn -1.000000 0.000000 0.000000
vn -1.000000 0.000000 -0.000000

# Mesh
g LargeCrate
usemtl lambert1
f 4/4/1 1/1/1 2/2/1
f 2/2/1 3/3/1 4/4/1
f 8/8/2 5/5/2 6/6/2
f 6/6/2 7/7/2 8/8/2
f 8/8/3 9/9/3 10/10/3
f 10/10/3 5/5/3 8/8/3
f 14/14/4 11/11/4 12/12/4
f 12/12/4 13/13/4 14/14/4
f 8/8/5 7/7/5 15/15/5
f 15/15/5 9/9/5 8/8/5
f 19/19/6 16/16/6 17/17/6
f 17/17/6 18/18/6 19/19/6
f 13/13/4 12/12/4 20/20/4
f 20/20/4 21/21/4 13/13/4
f 5/24/3 10/10/3 22/22/3
f 22/22/3 23/23/3 5/24/3
f 5/24/2 23/23/2 24/25/2
f 24/25/2 6/26/2 5/24/2
f 1/30/1 25/27/1 26/28/1
f 26/28/1 2/29/1 1/30/1
f 28/32/4 27/31/4 21/21/4
f 21/21/4 20/20/4 28/32/4
f 16/16/3 19/19/3 23/23/3
f 23/23/3 22/22/3 16/16/3
f 19/19/2 18/18/2 24/25/2
f 24/25/2 23/23/2 19/19/2
f 30/36/1 29/33/1 26/34/1
f 26/34/1 25/35/1 30/36/1
f 18/18/2 31/37/2 32/38/7
f 32/38/7 24/25/2 18/18/2
f 36/42/2 33/39/2 34/40/2
f 34/40/2 35/41/2 36/42/2
f 38/44/2 7/7/2 6/6/2
f 6/6/2 37/43/8 38/44/2
f 7/7/5 38/44/5 39/45/5
f 39/45/5 15/15/5 7/7/5
f 11/11/4 40/46/4 41/47/4
f 41/47/4 12/12/4 11/11/4
f 45/51/9 42/48/9 43/49/9
f 43/49/9 44/50/9 45/51/9
f 47/53/4 28/32/4 20/20/4
f 20/20/4 46/52/4 47/53/4
f 31/37/6 18/18/6 17/17/6
f 17/17/6 48/54/6 31/37/6
f 31/37/2 30/36/2 25/35/10
f 25/35/10 32/38/7 31/37/2
f 1/30/11 37/55/8 32/56/7
f 32/56/7 25/27/10 1/30/11
f 4/4/2 38/44/2 37/43/8
f 37/43/8 1/1/11 4/4/2
f 4/4/5 3/3/5 39/45/5
f 39/45/5 38/44/5 4/4/5
f 50/58/4 49/57/4 41/47/4
f 41/47/4 40/46/4 50/58/4
f 49/57/4 51/59/4 46/52/4
f 46/52/4 41/47/4 49/57/4
f 52/60/4 47/53/4 46/52/4
f 46/52/4 51/59/4 52/60/4
f 30/36/6 31/37/6 48/54/6
f 48/54/6 29/33/6 30/36/6
f 29/33/1 53/61/1 54/62/1
f 54/62/1 26/34/1 29/33/1
f 58/66/1 55/63/1 56/64/1
f 56/64/1 57/65/1 58/66/1
f 60/68/1 3/3/1 2/2/1
f 2/2/1 59/67/1 60/68/1
f 3/3/5 60/68/5 61/69/12
f 61/69/12 39/45/5 3/3/5
f 65/73/5 62/70/5 63/71/5
f 63/71/5 64/72/5 65/73/5
f 67/75/5 9/9/5 15/15/5
f 15/15/5 66/74/13 67/75/5
f 9/9/3 67/75/3 68/76/3
f 68/76/3 10/10/3 9/9/3
f 72/80/3 69/77/3 70/78/3
f 70/78/3 71/79/3 72/80/3
f 74/82/3 16/16/3 22/22/3
f 22/22/3 73/81/3 74/82/3
f 16/16/6 74/82/6 75/83/6
f 75/83/6 17/17/6 16/16/6
f 79/87/14 76/84/14 77/85/14
f 77/85/14 78/86/14 79/87/14
f 53/61/6 29/33/6 48/54/6
f 48/54/6 80/88/6 53/61/6
f 53/61/1 52/60/1 51/59/1
f 51/59/1 54/62/1 53/61/1
f 49/57/1 59/67/1 54/62/1
f 54/62/1 51/59/1 49/57/1
f 50/58/1 60/68/1 59/67/1
f 59/67/1 49/57/1 50/58/1
f 60/68/5 50/58/5 40/46/15
f 40/46/15 61/69/12 60/68/5
f 11/11/16 66/74/13 61/69/12
f 61/69/12 40/46/15 11/11/16
f 14/14/5 67/75/5 66/74/13
f 66/74/13 11/11/16 14/14/5
f 14/14/3 13/13/3 68/76/3
f 68/76/3 67/75/3 14/14/3
f 13/13/3 21/21/3 73/81/3
f 73/81/3 68/76/3 13/13/3
f 27/31/3 74/82/3 73/81/3
f 73/81/3 21/21/3 27/31/3
f 74/82/6 27/31/6 28/32/6
f 28/32/6 75/83/6 74/82/6
f 47/53/6 80/88/6 75/83/6
f 75/83/6 28/32/6 47/53/6
f 52/60/6 53/61/6 80/88/6
f 80/88/6 47/53/6 52/60/6
f 33/39/1 6/26/1 24/25/1
f 24/25/1 34/40/1 33/39/1
f 34/40/17 24/25/17 32/38/18
f 32/38/18 35/41/18 34/40/17
f 35/41/20 32/56/19 37/55/20
f 37/55/20 36/42/20 35/41/20
f 36/90/22 37/43/21 6/6/22
f 6/6/22 33/89/22 36/90/22
f 76/84/4 48/54/4 17/17/4
f 17/17/4 77/85/4 76/84/4
f 77/85/23 17/17/23 75/83/23
f 75/83/23 78/86/23 77/85/23
f 78/86/2 75/83/2 80/88/2
f 80/88/2 79/87/2 78/86/2
f 79/87/24 80/88/24 48/54/24
f 48/54/24 76/84/24 79/87/24
f 55/92/4 2/29/4 26/28/4
f 26/28/4 56/91/4 55/92/4
f 56/64/5 26/34/5 54/62/5
f 54/62/5 57/65/5 56/64/5
f 57/65/2 54/62/2 59/67/2
f 59/67/2 58/66/2 57/65/2
f 58/66/6 59/67/6 2/2/6
f 2/2/6 55/93/6 58/66/6
f 62/70/4 15/15/4 39/45/4
f 39/45/4 63/71/4 62/70/4
f 63/71/24 39/45/24 61/69/24
f 61/69/24 64/72/24 63/71/24
f 64/72/2 61/69/2 66/74/2
f 66/74/2 65/73/2 64/72/2
f 65/73/1 66/74/1 15/15/1
f 15/15/1 62/70/1 65/73/1
f 69/77/2 68/76/2 73/81/2
f 73/81/2 70/78/2 69/77/2
f 70/78/5 73/81/5 22/22/5
f 22/22/5 71/79/5 70/78/5
f 71/79/4 22/22/4 10/10/4
f 10/10/4 72/80/4 71/79/4
f 72/80/25 10/10/25 68/76/25
f 68/76/25 69/77/25 72/80/25
f 42/48/3 41/47/3 46/52/3
f 46/52/3 43/49/3 42/48/3
f 43/49/5 46/52/5 20/20/5
f 20/20/5 44/50/5 43/49/5
f 44/50/1 20/20/1 12/12/1
f 12/12/1 45/51/1 44/50/1
f 45/51/26 12/12/26 41/47/26
f 41/47/26 42/48/26 45/51/26
