# File produced by Open Asset Import Library (http://www.assimp.sf.net)
# (assimp v3.1.128981410)

mtllib TallboxMesh.mtl

# vertex positions
v -2.590968 -46.116863 30.863813
v -2.590968 -46.587265 30.863813
v -2.590968 -46.587265 -30.863817
v -2.590968 -46.116863 -30.863817
v 2.591084 -46.116863 -30.863817
v 2.591084 -46.587265 -30.863817
v 2.591084 -46.587265 30.863813
v 2.591084 -46.116863 30.863813
v -31.651590 -46.116863 -31.656763
v 31.651705 -46.116863 -31.656763
v 31.651705 -46.570301 -31.656763
v -31.651590 -46.564472 -31.656763
v 31.651705 -46.116863 31.656761
v -31.651590 -46.116863 31.656761
v -31.651590 -46.564472 31.656761
v 31.651705 -46.570301 31.656761
v -30.901945 -46.714157 -0.256868
v -30.901945 -48.550251 -0.256868
v 30.902063 -48.556084 -0.256868
v 30.902063 -46.719994 -0.256868
v 30.902063 -46.719994 0.256866
v 30.902063 -48.556084 0.256866
v -30.901945 -48.550251 0.256866
v -30.901945 -46.714157 0.256866
v 31.651705 -48.406399 -31.448748
v -31.651590 -48.400558 -31.448748
v -31.651590 -48.400558 31.448746
v 31.651705 -48.406399 31.448746
v 31.651705 -46.875000 31.656763
v 31.651705 -46.875000 -31.656761
v 31.651705 46.116863 -31.656761
v 31.651705 46.116863 31.656763
v -31.651590 -46.875000 -31.656761
v -31.651590 -46.875000 31.656763
v -31.651590 46.116863 31.656763
v -31.651590 46.116863 -31.656761
v -2.590968 46.116863 -30.863813
v -2.590968 46.587265 -30.863813
v -2.590968 46.587265 30.863817
v -2.590968 46.116863 30.863817
v 2.591084 46.116863 30.863817
v 2.591084 46.587265 30.863817
v 2.591084 46.587265 -30.863813
v 2.591084 46.116863 -30.863813
v 31.651705 46.570301 31.656763
v -31.651590 46.564472 31.656763
v -31.651590 46.564472 -31.656761
v 31.651705 46.570301 -31.656761
v -30.901945 46.714157 0.256868
v -30.901945 48.550251 0.256868
v 30.902063 48.556084 0.256868
v 30.902063 46.719994 0.256868
v 30.902063 46.719994 -0.256866
v 30.902063 48.556084 -0.256866
v -30.901945 48.550251 -0.256866
v -30.901945 46.714157 -0.256866
v 31.651705 48.406399 31.448748
v -31.651590 48.400558 31.448748
v -31.651590 48.400558 -31.448746
v 31.651705 48.406399 -31.448746

# UV coordinates
vt 0.776142 0.523349
vt 0.774315 0.523437
vt 0.774504 0.293934
vt 0.776355 0.293982
vt 0.658293 0.271801
vt 0.656465 0.271889
vt 0.656656 0.042427
vt 0.658509 0.042475
vt 0.177022 0.893467
vt 0.000001 0.893467
vt 0.000000 0.891205
vt 0.177022 0.891234
vt 0.177023 0.890325
vt 0.000000 0.890325
vt 0.000001 0.888092
vt 0.177024 0.888063
vt 0.886183 0.520789
vt 0.887554 0.292896
vt 0.776166 0.291974
vt 0.887324 0.291537
vt 0.889296 0.292862
vt 0.999270 0.290177
vt 0.999270 0.520394
vt 0.887926 0.520762
vt 0.886011 0.522878
vt 0.776046 0.525319
vt 0.768355 0.269212
vt 0.769733 0.041376
vt 0.658319 0.040466
vt 0.769501 0.040001
vt 0.771498 0.041340
vt 0.881487 0.038626
vt 0.881487 0.268817
vt 0.770122 0.269184
vt 0.768181 0.271328
vt 0.658197 0.273770
vt 0.646874 0.992553
vt 0.640072 0.992627
vt 0.638152 0.754034
vt 0.644954 0.753983
vt 0.505322 0.246016
vt 0.498520 0.245965
vt 0.500440 0.007372
vt 0.507242 0.007446
vt 0.516807 0.513695
vt 0.633504 0.515401
vt 0.637633 0.746650
vt 0.518799 0.751361
vt 0.524931 0.756451
vt 0.522958 0.990864
vt 0.640076 0.999998
vt 0.516807 0.995937
vt 0.379167 0.248638
vt 0.498001 0.253349
vt 0.493872 0.484598
vt 0.377175 0.486304
vt 0.377175 0.004062
vt 0.500444 0.000000
vt 0.383326 0.009135
vt 0.385299 0.243548
vt 0.000078 0.658182
vt 0.000010 0.438812
vt 0.374438 0.459372
vt 0.374494 0.678715
vt 0.000000 0.219426
vt 0.000000 0.000000
vt 0.374411 0.020591
vt 0.374420 0.240009
vt 0.374611 0.897963
vt 0.000207 0.877442
vt 0.775030 0.761655
vt 0.773416 0.762896
vt 0.765293 0.531806
vt 0.767058 0.531748
vt 0.647069 0.742249
vt 0.645311 0.742182
vt 0.654013 0.511454
vt 0.655631 0.512693
vt 0.376319 0.678815
vt 0.376413 0.898062
vt 0.376223 0.240108
vt 0.376264 0.459473
vt 0.883037 0.762376
vt 0.875667 0.525689
vt 0.766961 0.529997
vt 0.875574 0.524023
vt 0.873766 0.999934
vt 0.765293 0.993113
vt 0.882981 0.764077
vt 0.755914 0.748841
vt 0.763511 0.511813
vt 0.763461 0.510090
vt 0.645424 0.281277
vt 0.753884 0.274238
vt 0.645311 0.279526
vt 0.753775 0.272550
vt 0.884653 0.764141
vt 0.875438 0.999999
vt 0.755578 0.274170
vt 0.765154 0.510022
vt 0.645258 0.261200
vt 0.638456 0.261191
vt 0.638551 0.023396
vt 0.645353 0.023426
vt 0.505441 0.731303
vt 0.498639 0.731252
vt 0.500558 0.492659
vt 0.507361 0.492733
vt 0.517968 0.264978
vt 0.637797 0.268556
vt 0.633902 0.500438
vt 0.517102 0.501558
vt 0.517102 0.019771
vt 0.638600 0.015994
vt 0.523335 0.024925
vt 0.523988 0.259948
vt 0.379286 0.733925
vt 0.498119 0.738636
vt 0.493991 0.969885
vt 0.377294 0.971591
vt 0.377294 0.489349
vt 0.500562 0.485287
vt 0.383445 0.494422
vt 0.385418 0.728835

# vertex normals
vn 1.000000 0.000000 0.000000
vn -1.000000 0.000000 0.000000
vn 0.000000 0.000000 -1.000000
vn 0.000000 0.000000 1.000000
vn 0.000000 1.000000 0.000000
vn 0.027276 0.000000 -0.999628
vn 0.027276 0.000000 -0.999628
vn 0.027276 0.000000 -0.999628
vn -0.000785 -1.000000 0.000000
vn -0.000785 -1.000000 0.000000
vn 0.027276 0.000000 0.999628
vn 0.027276 0.000000 0.999628
vn 0.027276 0.000000 0.999628
vn -0.027276 0.000000 0.999628
vn -0.027276 0.000000 0.999628
vn 0.000584 -1.000000 0.000000
vn -0.027276 0.000000 -0.999628
vn -0.027276 0.000000 -0.999628
vn 0.000000 0.000000 1.000000
vn 0.000000 0.000000 1.000000
vn 0.000000 0.000000 -1.000000
vn 0.000000 0.000000 -1.000000
vn 0.000093 0.999989 0.004767
vn 0.000093 0.999989 0.004767
vn 0.999712 0.001357 0.023953
vn 0.999712 0.001357 0.023953
vn 0.999712 0.001357 0.023953
vn -0.000093 -0.999989 -0.004799
vn -0.000093 -0.999989 -0.004799
vn -0.000093 -0.999989 -0.004799
vn -0.999712 0.001356 0.023953
vn -0.999712 0.001356 0.023953
vn -0.999712 0.001356 0.023953
vn -0.999712 0.001356 0.023953
vn 0.000093 0.999989 -0.004767
vn 0.000093 0.999989 -0.004767
vn -0.999712 0.001356 -0.023953
vn -0.999712 0.001356 -0.023953
vn -0.000093 -0.999989 0.004799
vn -0.000093 -0.999989 0.004799
vn -0.000093 -0.999989 0.004799
vn 0.999712 0.001357 -0.023953
vn 0.999712 0.001357 -0.023953
vn -0.000010 -0.112571 -0.993644
vn -0.000010 -0.112571 0.993644
vn 0.000000 -1.000000 0.000000
vn -0.000785 1.000000 0.000000
vn -0.000785 1.000000 0.000000
vn 0.000584 1.000000 0.000000
vn 0.000000 0.000000 -1.000000
vn 0.000000 0.000000 -1.000000
vn 0.000000 0.000000 1.000000
vn 0.000000 0.000000 1.000000
vn 0.000093 -0.999989 -0.004767
vn 0.000093 -0.999989 -0.004767
vn 0.999712 -0.001357 -0.023953
vn 0.999712 -0.001357 -0.023953
vn 0.999712 -0.001357 -0.023953
vn -0.000093 0.999989 0.004799
vn -0.000093 0.999989 0.004799
vn -0.000093 0.999989 0.004799
vn -0.999712 -0.001356 -0.023953
vn -0.999712 -0.001356 -0.023953
vn -0.999712 -0.001356 -0.023953
vn -0.999712 -0.001356 -0.023953
vn 0.000093 -0.999989 0.004767
vn 0.000093 -0.999989 0.004767
vn -0.999712 -0.001356 0.023953
vn -0.999712 -0.001356 0.023953
vn -0.000093 0.999989 -0.004799
vn -0.000093 0.999989 -0.004799
vn -0.000093 0.999989 -0.004799
vn 0.999712 -0.001357 0.023953
vn 0.999712 -0.001357 0.023953
vn -0.000010 0.112571 0.993644
vn -0.000010 0.112571 -0.993644

# Mesh
g TallBox
usemtl lambert1
f 4/4/1 1/1/1 2/2/1
f 2/2/1 3/3/1 4/4/1
f 8/8/2 5/5/2 6/6/2
f 6/6/2 7/7/2 8/8/2
f 12/12/3 9/9/3 10/10/3
f 10/10/3 11/11/3 12/12/3
f 16/16/4 13/13/4 14/14/4
f 14/14/4 15/15/4 16/16/4
f 9/18/5 14/17/5 1/1/5
f 1/1/5 4/4/5 9/18/5
f 12/20/8 9/18/6 4/4/6
f 4/4/6 3/19/7 12/20/8
f 15/24/9 12/21/9 3/22/10
f 3/22/10 2/23/10 15/24/9
f 14/17/13 15/25/11 2/26/12
f 2/26/12 1/1/13 14/17/13
f 13/28/5 10/27/5 5/5/5
f 5/5/5 8/8/5 13/28/5
f 16/30/15 13/28/14 8/8/14
f 8/8/14 7/29/14 16/30/15
f 11/34/16 16/31/16 7/32/16
f 7/32/16 6/33/16 11/34/16
f 10/27/18 11/35/17 6/36/18
f 6/36/18 5/5/18 10/27/18
f 15/24/2 14/17/2 9/18/2
f 9/18/2 12/21/2 15/24/2
f 11/34/1 10/27/1 13/28/1
f 13/28/1 16/31/1 11/34/1
f 20/40/20 17/37/19 18/38/20
f 18/38/20 19/39/19 20/40/20
f 24/44/22 21/41/21 22/42/22
f 22/42/22 23/43/21 24/44/22
f 11/48/24 12/45/23 17/46/24
f 17/46/24 20/47/24 11/48/24
f 25/49/27 11/48/25 20/47/26
f 20/47/26 19/39/27 25/49/27
f 26/50/30 25/49/28 19/39/29
f 19/39/29 18/38/29 26/50/30
f 12/52/34 26/50/31 18/38/32
f 18/38/32 17/51/33 12/52/34
f 15/56/36 16/53/35 21/54/35
f 21/54/35 24/55/35 15/56/36
f 27/59/38 15/57/37 24/58/38
f 24/58/38 23/43/38 27/59/38
f 28/60/39 27/59/39 23/43/40
f 23/43/40 22/42/41 28/60/39
f 16/53/42 28/60/42 22/42/43
f 22/42/43 21/54/42 16/53/42
f 26/50/44 12/52/44 11/48/44
f 11/48/44 25/49/44 26/50/44
f 28/60/45 16/53/45 15/57/45
f 15/57/45 27/59/45 28/60/45
f 32/64/1 29/61/1 30/62/1
f 30/62/1 31/63/1 32/64/1
f 36/68/2 33/65/2 34/66/2
f 34/66/2 35/67/2 36/68/2
f 32/64/4 35/69/4 34/70/4
f 34/70/4 29/61/4 32/64/4
f 30/62/3 33/65/3 36/68/3
f 36/68/3 31/63/3 30/62/3
f 40/74/1 37/71/1 38/72/1
f 38/72/1 39/73/1 40/74/1
f 44/78/2 41/75/2 42/76/2
f 42/76/2 43/77/2 44/78/2
f 46/80/4 35/69/4 32/64/4
f 32/64/4 45/79/4 46/80/4
f 48/82/3 31/63/3 36/68/3
f 36/68/3 47/81/3 48/82/3
f 35/84/46 36/83/46 37/71/46
f 37/71/46 40/74/46 35/84/46
f 46/86/11 35/84/13 40/74/13
f 40/74/13 39/85/12 46/86/11
f 47/89/47 46/87/47 39/88/48
f 39/88/48 38/72/48 47/89/47
f 36/83/6 47/89/8 38/72/7
f 38/72/7 37/71/6 36/83/6
f 31/91/46 32/90/46 41/75/46
f 41/75/46 44/78/46 31/91/46
f 48/92/17 31/91/18 44/78/18
f 44/78/18 43/77/18 48/92/17
f 45/94/49 48/92/49 43/77/49
f 43/77/49 42/93/49 45/94/49
f 32/96/14 45/94/15 42/93/14
f 42/93/14 41/95/14 32/96/14
f 47/89/2 36/97/2 35/98/2
f 35/98/2 46/87/2 47/89/2
f 45/94/1 32/99/1 31/100/1
f 31/100/1 48/92/1 45/94/1
f 52/104/51 49/101/50 50/102/51
f 50/102/51 51/103/50 52/104/51
f 56/108/53 53/105/52 54/106/53
f 54/106/53 55/107/52 56/108/53
f 45/112/55 46/109/54 49/110/55
f 49/110/55 52/111/55 45/112/55
f 57/115/58 45/113/56 52/114/57
f 52/114/57 51/103/58 57/115/58
f 58/116/61 57/115/59 51/103/60
f 51/103/60 50/102/60 58/116/61
f 46/109/65 58/116/62 50/102/63
f 50/102/63 49/110/64 46/109/65
f 47/120/67 48/117/66 53/118/66
f 53/118/66 56/119/66 47/120/67
f 59/123/69 47/121/68 56/122/69
f 56/122/69 55/107/69 59/123/69
f 60/124/70 59/123/70 55/107/71
f 55/107/71 54/106/72 60/124/70
f 48/117/73 60/124/73 54/106/74
f 54/106/74 53/118/73 48/117/73
f 58/116/75 46/109/75 45/113/75
f 45/113/75 57/115/75 58/116/75
f 60/124/76 48/117/76 47/121/76
f 47/121/76 59/123/76 60/124/76
