# File produced by Open Asset Import Library (http://www.assimp.sf.net)
# (assimp v3.1.128981410)

mtllib Dumpster.mtl

# vertex positions
v 241.937500 -53.119686 182.752380
v 241.937500 -4.297672 182.752380
v -241.937500 -4.297672 182.752380
v -241.937500 -53.119686 182.752380
v 229.474258 -177.996902 169.314865
v 229.474258 -177.995773 -169.314865
v -229.474258 -177.995773 -169.314865
v -229.474258 -177.996902 169.314865
v 241.937500 86.594276 -182.752380
v 241.937500 14.054006 -182.752380
v -241.937500 14.054006 -182.752380
v -241.937500 86.594276 -182.752380
v 241.937500 -191.390991 -182.752380
v 241.937500 -191.390991 182.752380
v -241.937500 -191.390991 182.752380
v -241.937500 -191.390991 -182.752380
v 261.744934 -53.119686 182.752380
v 261.744934 14.054006 -182.752380
v 261.744934 86.594276 -182.752380
v 261.744934 -4.297672 182.752380
v 241.937500 46.953716 182.752380
v 251.314102 43.248463 194.053757
v -251.314102 43.248463 194.053757
v -241.937500 46.953716 182.752380
v 241.937500 159.568497 -182.752380
v 251.314102 162.781982 -194.053757
v -241.937500 159.568497 -182.752380
v -251.314102 162.781982 -194.053757
v 251.314102 71.857452 194.053757
v -251.314102 71.857452 194.053757
v 251.314102 191.390991 -194.053757
v -251.314102 191.390991 -194.053757
v 229.474258 79.510231 169.314865
v -229.474258 79.510231 169.314865
v 229.474258 183.738205 -169.314865
v -229.474258 183.738205 -169.314865
v 244.199448 -50.471073 182.752380
v 244.199448 -6.946280 182.752380
v 259.482971 -50.471073 182.752380
v 259.482971 -6.946280 182.752380
v 244.646774 17.850412 -182.752380
v 244.646774 83.569237 -182.752380
v 259.035675 17.850412 -182.752380
v 259.035675 83.569237 -182.752380
v -261.744934 -53.119686 182.752380
v -261.744934 -4.297672 182.752380
v -261.744934 86.594276 -182.752380
v -261.744934 14.054006 -182.752380
v -244.199448 -6.946280 182.752380
v -244.199448 -50.471073 182.752380
v -259.482971 -50.471073 182.752380
v -259.482971 -6.946280 182.752380
v -244.646774 83.569237 -182.752380
v -244.646774 17.850412 -182.752380
v -259.035675 17.850412 -182.752380
v -259.035675 83.569237 -182.752380

# UV coordinates
vt 0.393957 0.956301
vt 0.377529 0.976025
vt 0.051579 0.829055
vt 0.056580 0.804946
vt 0.601648 0.257844
vt 0.525244 0.377248
vt 0.359897 0.240160
vt 0.458785 0.057526
vt 0.527549 0.616372
vt 0.527468 0.654728
vt 0.170164 0.499031
vt 0.196242 0.469539
vt 0.425473 0.714370
vt 0.354860 0.879674
vt 0.139903 0.770738
vt 0.204284 0.602389
vt 0.406499 0.954210
vt 0.533956 0.664597
vt 0.559266 0.699678
vt 0.438211 0.945220
vt 0.787414 0.263446
vt 0.784604 0.271197
vt 0.634503 0.000000
vt 0.643005 0.002401
vt 0.782753 0.282416
vt 0.585784 0.556845
vt 0.574959 0.563043
vt 0.548715 0.576603
vt 0.539646 0.579222
vt 0.216635 0.434289
vt 0.212593 0.425505
vt 0.769073 0.272931
vt 0.620369 0.006301
vt 0.555268 0.563190
vt 0.218215 0.410938
vt 0.752388 0.273051
vt 0.613782 0.023375
vt 0.552248 0.546115
vt 0.230671 0.400124
vt 0.448037 0.947432
vt 0.567744 0.709155
vt 0.605893 0.722492
vt 0.475264 0.951012
vt 0.362833 0.999999
vt 0.042452 0.855116
vt 0.394374 0.957984
vt 0.379447 0.975815
vt 0.407985 0.955350
vt 0.437406 0.946869
vt 0.446000 0.948741
vt 0.732192 0.575433
vt 0.740677 0.597262
vt 0.534400 0.653756
vt 0.528930 0.618549
vt 0.742229 0.605298
vt 0.538170 0.662025
vt 0.742963 0.628454
vt 0.558731 0.695514
vt 0.745544 0.636439
vt 0.562948 0.701820
vt 0.563509 0.703943
vt 0.049516 0.793746
vt 0.031421 0.775009
vt 0.115306 0.511204
vt 0.158743 0.501658
vt 0.172035 0.113524
vt 0.176180 0.104307
vt 0.202857 0.404253
vt 0.197109 0.395801
vt 0.190924 0.107911
vt 0.204001 0.123293
vt 0.022578 0.770139
vt 0.000000 0.755178
vt 0.064057 0.496788
vt 0.103919 0.512128
vt 0.050560 0.827507
vt 0.055077 0.805615
vt 0.048045 0.794308
vt 0.031266 0.776790
vt 0.023050 0.772557
vt 0.049683 0.306791
vt 0.193487 0.470120
vt 0.165677 0.493274
vt 0.030181 0.320693
vt 0.157215 0.497006
vt 0.024334 0.326657
vt 0.116912 0.509065
vt 0.010627 0.345772
vt 0.109240 0.510556
vt 0.003950 0.350894

# vertex normals
vn 0.000000 0.000000 1.000000
vn 0.000000 1.000000 0.000003
vn 0.000000 0.000000 -1.000000
vn 0.000000 -1.000000 0.000000
vn 1.000000 0.000000 0.000000
vn 0.000000 -0.981084 -0.193581
vn 0.000000 -0.954803 -0.297240
vn 0.000000 -0.981084 -0.193581
vn 0.000000 0.978664 0.205469
vn -0.000000 0.953890 0.300156
vn 0.000000 0.978664 0.205469
vn -1.000000 0.000000 0.000000
vn 0.000000 -0.983528 -0.180756
vn 0.000000 0.970444 0.241325
vn -0.000001 0.000000 1.000000
vn 0.999999 0.000000 0.001224
vn 0.000000 0.982975 0.183741
vn -0.999999 0.000000 0.001224
vn 0.000000 -0.970678 -0.240384
vn 0.000000 0.953890 0.300156
vn 0.000001 0.000000 1.000000

# Mesh
g Dumpster
usemtl lambert1
f 4/4/1 1/1/1 2/2/1
f 2/2/1 3/3/1 4/4/1
f 8/8/2 5/5/2 6/6/2
f 6/6/2 7/7/2 8/8/2
f 12/12/3 9/9/3 10/10/3
f 10/10/3 11/11/3 12/12/3
f 16/16/4 13/13/4 14/14/4
f 14/14/4 15/15/4 16/16/4
f 20/20/5 17/17/5 18/18/5
f 18/18/5 19/19/5 20/20/5
f 24/24/6 21/21/6 22/22/6
f 22/22/6 23/23/6 24/24/6
f 22/22/7 21/25/7 25/26/7
f 25/26/7 26/27/7 22/22/7
f 28/31/8 26/28/8 25/29/8
f 25/29/8 27/30/8 28/31/8
f 23/23/1 22/22/1 29/32/1
f 29/32/1 30/33/1 23/23/1
f 29/32/5 22/22/5 26/27/5
f 26/27/5 31/34/5 29/32/5
f 32/35/3 31/34/3 26/28/3
f 26/28/3 28/31/3 32/35/3
f 30/33/9 29/32/9 33/36/9
f 33/36/9 34/37/9 30/33/9
f 33/36/10 29/32/10 31/34/10
f 31/34/10 35/38/10 33/36/10
f 36/39/11 35/38/11 31/34/11
f 31/34/11 32/35/11 36/39/11
f 34/37/3 33/36/3 5/5/3
f 5/5/3 8/8/3 34/37/3
f 5/5/12 33/36/12 35/38/12
f 35/38/12 6/6/12 5/5/12
f 7/7/1 6/6/1 35/38/1
f 35/38/1 36/39/1 7/7/1
f 15/15/1 14/14/1 1/1/1
f 1/1/1 4/4/1 15/15/1
f 1/1/5 14/14/5 13/13/5
f 13/13/5 10/10/5 1/1/5
f 11/11/3 10/10/3 13/13/3
f 13/13/3 16/16/3 11/11/3
f 27/30/3 25/29/3 9/9/3
f 9/9/3 12/12/3 27/30/3
f 21/43/5 2/40/5 9/41/5
f 9/41/5 25/42/5 21/43/5
f 3/3/1 2/2/1 21/44/1
f 21/44/1 24/45/1 3/3/1
f 17/17/13 1/1/13 10/10/13
f 10/10/13 18/18/13 17/17/13
f 19/19/14 9/41/14 2/40/14
f 2/40/14 20/20/14 19/19/14
f 38/47/1 2/2/1 1/1/1
f 1/1/1 37/46/1 38/47/1
f 37/46/1 1/1/1 17/17/1
f 17/17/1 39/48/1 37/46/1
f 39/48/15 17/17/15 20/20/15
f 20/20/15 40/49/15 39/48/15
f 40/49/1 20/20/1 2/40/1
f 2/40/1 38/50/1 40/49/1
f 42/54/16 38/51/16 37/52/16
f 37/52/16 41/53/16 42/54/16
f 41/53/17 37/52/17 39/55/17
f 39/55/17 43/56/17 41/53/17
f 43/56/18 39/55/18 40/57/18
f 40/57/18 44/58/18 43/56/18
f 44/58/19 40/57/19 38/59/19
f 38/59/19 42/60/19 44/58/19
f 42/54/3 41/53/3 10/10/3
f 10/10/3 9/9/3 42/54/3
f 10/10/3 41/53/3 43/56/3
f 43/56/3 18/18/3 10/10/3
f 18/18/3 43/56/3 44/58/3
f 44/58/3 19/19/3 18/18/3
f 44/58/3 42/60/3 9/61/3
f 9/61/3 19/19/3 44/58/3
f 48/65/12 45/62/12 46/63/12
f 46/63/12 47/64/12 48/65/12
f 27/69/7 24/66/7 23/67/7
f 23/67/7 28/68/7 27/69/7
f 28/68/12 23/67/12 30/70/12
f 30/70/12 32/35/12 28/68/12
f 32/35/20 30/70/20 34/71/20
f 34/71/20 36/39/20 32/35/20
f 36/39/5 34/71/5 8/8/5
f 8/8/5 7/7/5 36/39/5
f 16/16/12 15/15/12 4/4/12
f 4/4/12 11/11/12 16/16/12
f 12/75/12 3/72/12 24/73/12
f 24/73/12 27/74/12 12/75/12
f 11/11/13 4/4/13 45/62/13
f 45/62/13 48/65/13 11/11/13
f 3/72/14 12/75/14 47/64/14
f 47/64/14 46/63/14 3/72/14
f 4/4/1 3/3/1 49/76/1
f 49/76/1 50/77/1 4/4/1
f 45/62/1 4/4/1 50/77/1
f 50/77/1 51/78/1 45/62/1
f 46/63/21 45/62/21 51/78/21
f 51/78/21 52/79/21 46/63/21
f 3/72/1 46/63/1 52/79/1
f 52/79/1 49/80/1 3/72/1
f 50/84/18 49/81/18 53/82/18
f 53/82/18 54/83/18 50/84/18
f 51/86/17 50/84/17 54/83/17
f 54/83/17 55/85/17 51/86/17
f 52/88/16 51/86/16 55/85/16
f 55/85/16 56/87/16 52/88/16
f 49/90/19 52/88/19 56/87/19
f 56/87/19 53/89/19 49/90/19
f 11/11/3 54/83/3 53/82/3
f 53/82/3 12/12/3 11/11/3
f 55/85/3 54/83/3 11/11/3
f 11/11/3 48/65/3 55/85/3
f 56/87/3 55/85/3 48/65/3
f 48/65/3 47/64/3 56/87/3
f 12/75/3 53/89/3 56/87/3
f 56/87/3 47/64/3 12/75/3
